<mxfile host="65bd71144e">
    <diagram id="Ksz-za2FM8zo5IFq9um-" name="Page-1">
        <mxGraphModel dx="1468" dy="1168" grid="1" gridSize="10" guides="1" tooltips="1" connect="1" arrows="1" fold="1" page="0" pageScale="1" pageWidth="850" pageHeight="1100" math="0" shadow="0">
            <root>
                <mxCell id="0"/>
                <mxCell id="1" parent="0"/>
                <mxCell id="56" value="user" style="shape=table;startSize=30;container=1;collapsible=0;childLayout=tableLayout;fixedRows=1;rowLines=0;fontStyle=1;fillStyle=auto;fontColor=#000;fillColor=#FFFF66;" parent="1" vertex="1">
                    <mxGeometry x="-80" y="260" width="220" height="210" as="geometry"/>
                </mxCell>
                <mxCell id="66" value="" style="shape=tableRow;horizontal=0;startSize=0;swimlaneHead=0;swimlaneBody=0;top=0;left=0;bottom=0;right=0;collapsible=0;dropTarget=0;fillColor=#FFFFCC;points=[[0,0.5],[1,0.5]];portConstraint=eastwest;fillStyle=auto;fontColor=#000;" parent="56" vertex="1">
                    <mxGeometry y="30" width="220" height="30" as="geometry"/>
                </mxCell>
                <mxCell id="67" value="PK" style="shape=partialRectangle;html=1;whiteSpace=wrap;connectable=0;fillColor=#FFFFCC;top=0;left=0;bottom=0;right=0;overflow=hidden;fillStyle=auto;fontColor=#000;" parent="66" vertex="1">
                    <mxGeometry width="40" height="30" as="geometry">
                        <mxRectangle width="40" height="30" as="alternateBounds"/>
                    </mxGeometry>
                </mxCell>
                <mxCell id="68" value="user_id&amp;nbsp; VarChar(36) nn" style="shape=partialRectangle;html=1;whiteSpace=wrap;connectable=0;fillColor=#FFFFCC;top=0;left=0;bottom=0;right=0;align=left;spacingLeft=6;overflow=hidden;fillStyle=auto;fontColor=#000;" parent="66" vertex="1">
                    <mxGeometry x="40" width="180" height="30" as="geometry">
                        <mxRectangle width="180" height="30" as="alternateBounds"/>
                    </mxGeometry>
                </mxCell>
                <mxCell id="57" value="" style="shape=tableRow;horizontal=0;startSize=0;swimlaneHead=0;swimlaneBody=0;top=0;left=0;bottom=0;right=0;collapsible=0;dropTarget=0;fillColor=#FFFFCC;points=[[0,0.5],[1,0.5]];portConstraint=eastwest;fillStyle=auto;fontColor=#000;" parent="56" vertex="1">
                    <mxGeometry y="60" width="220" height="30" as="geometry"/>
                </mxCell>
                <mxCell id="58" value="" style="shape=partialRectangle;html=1;whiteSpace=wrap;connectable=0;fillColor=#FFFFCC;top=0;left=0;bottom=0;right=0;overflow=hidden;pointerEvents=1;fillStyle=auto;fontColor=#000;" parent="57" vertex="1">
                    <mxGeometry width="40" height="30" as="geometry">
                        <mxRectangle width="40" height="30" as="alternateBounds"/>
                    </mxGeometry>
                </mxCell>
                <mxCell id="59" value="e-mail VarChar(254) nn" style="shape=partialRectangle;html=1;whiteSpace=wrap;connectable=0;fillColor=#FFFFCC;top=0;left=0;bottom=0;right=0;align=left;spacingLeft=6;overflow=hidden;fillStyle=auto;fontColor=#000;" parent="57" vertex="1">
                    <mxGeometry x="40" width="180" height="30" as="geometry">
                        <mxRectangle width="180" height="30" as="alternateBounds"/>
                    </mxGeometry>
                </mxCell>
                <mxCell id="60" value="" style="shape=tableRow;horizontal=0;startSize=0;swimlaneHead=0;swimlaneBody=0;top=0;left=0;bottom=0;right=0;collapsible=0;dropTarget=0;fillColor=#FFFFCC;points=[[0,0.5],[1,0.5]];portConstraint=eastwest;fillStyle=auto;fontColor=#000;" parent="56" vertex="1">
                    <mxGeometry y="90" width="220" height="30" as="geometry"/>
                </mxCell>
                <mxCell id="61" value="" style="shape=partialRectangle;html=1;whiteSpace=wrap;connectable=0;fillColor=#FFFFCC;top=0;left=0;bottom=0;right=0;overflow=hidden;fillStyle=auto;fontColor=#000;" parent="60" vertex="1">
                    <mxGeometry width="40" height="30" as="geometry">
                        <mxRectangle width="40" height="30" as="alternateBounds"/>
                    </mxGeometry>
                </mxCell>
                <mxCell id="62" value="password TEXT nn" style="shape=partialRectangle;html=1;whiteSpace=wrap;connectable=0;fillColor=#FFFFCC;top=0;left=0;bottom=0;right=0;align=left;spacingLeft=6;overflow=hidden;fillStyle=auto;fontColor=#000;" parent="60" vertex="1">
                    <mxGeometry x="40" width="180" height="30" as="geometry">
                        <mxRectangle width="180" height="30" as="alternateBounds"/>
                    </mxGeometry>
                </mxCell>
                <mxCell id="63" value="" style="shape=tableRow;horizontal=0;startSize=0;swimlaneHead=0;swimlaneBody=0;top=0;left=0;bottom=0;right=0;collapsible=0;dropTarget=0;fillColor=#FFFFCC;points=[[0,0.5],[1,0.5]];portConstraint=eastwest;fillStyle=auto;fontColor=#000;" parent="56" vertex="1">
                    <mxGeometry y="120" width="220" height="30" as="geometry"/>
                </mxCell>
                <mxCell id="64" value="" style="shape=partialRectangle;html=1;whiteSpace=wrap;connectable=0;fillColor=#FFFFCC;top=0;left=0;bottom=0;right=0;overflow=hidden;fillStyle=auto;fontColor=#000;" parent="63" vertex="1">
                    <mxGeometry width="40" height="30" as="geometry">
                        <mxRectangle width="40" height="30" as="alternateBounds"/>
                    </mxGeometry>
                </mxCell>
                <mxCell id="65" value="name&amp;nbsp; VarChar(254) nn" style="shape=partialRectangle;html=1;whiteSpace=wrap;connectable=0;fillColor=#FFFFCC;top=0;left=0;bottom=0;right=0;align=left;spacingLeft=6;overflow=hidden;fillStyle=auto;fontColor=#000;" parent="63" vertex="1">
                    <mxGeometry x="40" width="180" height="30" as="geometry">
                        <mxRectangle width="180" height="30" as="alternateBounds"/>
                    </mxGeometry>
                </mxCell>
                <mxCell id="257" value="" style="shape=tableRow;horizontal=0;startSize=0;swimlaneHead=0;swimlaneBody=0;top=0;left=0;bottom=0;right=0;collapsible=0;dropTarget=0;fillColor=#FFFFCC;points=[[0,0.5],[1,0.5]];portConstraint=eastwest;fillStyle=auto;fontColor=#000;" parent="56" vertex="1">
                    <mxGeometry y="150" width="220" height="30" as="geometry"/>
                </mxCell>
                <mxCell id="258" value="" style="shape=partialRectangle;html=1;whiteSpace=wrap;connectable=0;fillColor=#FFFFCC;top=0;left=0;bottom=0;right=0;overflow=hidden;pointerEvents=1;fillStyle=auto;fontColor=#000;" parent="257" vertex="1">
                    <mxGeometry width="40" height="30" as="geometry">
                        <mxRectangle width="40" height="30" as="alternateBounds"/>
                    </mxGeometry>
                </mxCell>
                <mxCell id="259" value="createdAt Date" style="shape=partialRectangle;html=1;whiteSpace=wrap;connectable=0;fillColor=#FFFFCC;top=0;left=0;bottom=0;right=0;align=left;spacingLeft=6;overflow=hidden;fillStyle=auto;fontColor=#000;" parent="257" vertex="1">
                    <mxGeometry x="40" width="180" height="30" as="geometry">
                        <mxRectangle width="180" height="30" as="alternateBounds"/>
                    </mxGeometry>
                </mxCell>
                <mxCell id="260" value="" style="shape=tableRow;horizontal=0;startSize=0;swimlaneHead=0;swimlaneBody=0;top=0;left=0;bottom=0;right=0;collapsible=0;dropTarget=0;fillColor=#FFFFCC;points=[[0,0.5],[1,0.5]];portConstraint=eastwest;fillStyle=auto;fontColor=#000;" parent="56" vertex="1">
                    <mxGeometry y="180" width="220" height="30" as="geometry"/>
                </mxCell>
                <mxCell id="261" value="" style="shape=partialRectangle;html=1;whiteSpace=wrap;connectable=0;fillColor=#FFFFCC;top=0;left=0;bottom=0;right=0;overflow=hidden;pointerEvents=1;fillStyle=auto;fontColor=#000;" parent="260" vertex="1">
                    <mxGeometry width="40" height="30" as="geometry">
                        <mxRectangle width="40" height="30" as="alternateBounds"/>
                    </mxGeometry>
                </mxCell>
                <mxCell id="262" value="updatedAt Date" style="shape=partialRectangle;html=1;whiteSpace=wrap;connectable=0;fillColor=#FFFFCC;top=0;left=0;bottom=0;right=0;align=left;spacingLeft=6;overflow=hidden;fillStyle=auto;fontColor=#000;" parent="260" vertex="1">
                    <mxGeometry x="40" width="180" height="30" as="geometry">
                        <mxRectangle width="180" height="30" as="alternateBounds"/>
                    </mxGeometry>
                </mxCell>
                <mxCell id="70" value="project" style="shape=table;startSize=30;container=1;collapsible=0;childLayout=tableLayout;fixedRows=1;rowLines=0;fontStyle=1;fillStyle=auto;fontColor=#000;fillColor=#FFFF66;" parent="1" vertex="1">
                    <mxGeometry x="370" y="-10" width="220" height="180.0000000000001" as="geometry"/>
                </mxCell>
                <mxCell id="71" value="" style="shape=tableRow;horizontal=0;startSize=0;swimlaneHead=0;swimlaneBody=0;top=0;left=0;bottom=0;right=0;collapsible=0;dropTarget=0;fillColor=#FFFFCC;points=[[0,0.5],[1,0.5]];portConstraint=eastwest;fillStyle=auto;fontColor=#000;" parent="70" vertex="1">
                    <mxGeometry y="30" width="220" height="30" as="geometry"/>
                </mxCell>
                <mxCell id="72" value="PK" style="shape=partialRectangle;html=1;whiteSpace=wrap;connectable=0;fillColor=#FFFFCC;top=0;left=0;bottom=0;right=0;overflow=hidden;fillStyle=auto;fontColor=#000;" parent="71" vertex="1">
                    <mxGeometry width="50" height="30" as="geometry">
                        <mxRectangle width="50" height="30" as="alternateBounds"/>
                    </mxGeometry>
                </mxCell>
                <mxCell id="73" value="project_id VarChar(36) nn" style="shape=partialRectangle;html=1;whiteSpace=wrap;connectable=0;fillColor=#FFFFCC;top=0;left=0;bottom=0;right=0;align=left;spacingLeft=6;overflow=hidden;fillStyle=auto;fontColor=#000;" parent="71" vertex="1">
                    <mxGeometry x="50" width="170" height="30" as="geometry">
                        <mxRectangle width="170" height="30" as="alternateBounds"/>
                    </mxGeometry>
                </mxCell>
                <mxCell id="74" value="" style="shape=tableRow;horizontal=0;startSize=0;swimlaneHead=0;swimlaneBody=0;top=0;left=0;bottom=0;right=0;collapsible=0;dropTarget=0;fillColor=#FFFFCC;points=[[0,0.5],[1,0.5]];portConstraint=eastwest;fillStyle=auto;fontColor=#000;" parent="70" vertex="1">
                    <mxGeometry y="60" width="220" height="30" as="geometry"/>
                </mxCell>
                <mxCell id="75" value="" style="shape=partialRectangle;html=1;whiteSpace=wrap;connectable=0;fillColor=#FFFFCC;top=0;left=0;bottom=0;right=0;overflow=hidden;pointerEvents=1;fillStyle=auto;fontColor=#000;" parent="74" vertex="1">
                    <mxGeometry width="50" height="30" as="geometry">
                        <mxRectangle width="50" height="30" as="alternateBounds"/>
                    </mxGeometry>
                </mxCell>
                <mxCell id="76" value="name String VARCHAR(254) nn" style="shape=partialRectangle;html=1;whiteSpace=wrap;connectable=0;fillColor=#FFFFCC;top=0;left=0;bottom=0;right=0;align=left;spacingLeft=6;overflow=hidden;fillStyle=auto;fontColor=#000;" parent="74" vertex="1">
                    <mxGeometry x="50" width="170" height="30" as="geometry">
                        <mxRectangle width="170" height="30" as="alternateBounds"/>
                    </mxGeometry>
                </mxCell>
                <mxCell id="184" value="" style="shape=tableRow;horizontal=0;startSize=0;swimlaneHead=0;swimlaneBody=0;top=0;left=0;bottom=0;right=0;collapsible=0;dropTarget=0;fillColor=#FFFFCC;points=[[0,0.5],[1,0.5]];portConstraint=eastwest;fillStyle=auto;fontColor=#000;" parent="70" vertex="1">
                    <mxGeometry y="90" width="220" height="30" as="geometry"/>
                </mxCell>
                <mxCell id="185" value="" style="shape=partialRectangle;html=1;whiteSpace=wrap;connectable=0;fillColor=#FFFFCC;top=0;left=0;bottom=0;right=0;overflow=hidden;pointerEvents=1;fillStyle=auto;fontColor=#000;" parent="184" vertex="1">
                    <mxGeometry width="50" height="30" as="geometry">
                        <mxRectangle width="50" height="30" as="alternateBounds"/>
                    </mxGeometry>
                </mxCell>
                <mxCell id="186" value="createdAt Date" style="shape=partialRectangle;html=1;whiteSpace=wrap;connectable=0;fillColor=#FFFFCC;top=0;left=0;bottom=0;right=0;align=left;spacingLeft=6;overflow=hidden;fillStyle=auto;fontColor=#000;" parent="184" vertex="1">
                    <mxGeometry x="50" width="170" height="30" as="geometry">
                        <mxRectangle width="170" height="30" as="alternateBounds"/>
                    </mxGeometry>
                </mxCell>
                <mxCell id="187" value="" style="shape=tableRow;horizontal=0;startSize=0;swimlaneHead=0;swimlaneBody=0;top=0;left=0;bottom=0;right=0;collapsible=0;dropTarget=0;fillColor=#FFFFCC;points=[[0,0.5],[1,0.5]];portConstraint=eastwest;fillStyle=auto;fontColor=#000;" parent="70" vertex="1">
                    <mxGeometry y="120" width="220" height="30" as="geometry"/>
                </mxCell>
                <mxCell id="188" value="" style="shape=partialRectangle;html=1;whiteSpace=wrap;connectable=0;fillColor=#FFFFCC;top=0;left=0;bottom=0;right=0;overflow=hidden;pointerEvents=1;fillStyle=auto;fontColor=#000;" parent="187" vertex="1">
                    <mxGeometry width="50" height="30" as="geometry">
                        <mxRectangle width="50" height="30" as="alternateBounds"/>
                    </mxGeometry>
                </mxCell>
                <mxCell id="189" value="updatedAt Date" style="shape=partialRectangle;html=1;whiteSpace=wrap;connectable=0;fillColor=#FFFFCC;top=0;left=0;bottom=0;right=0;align=left;spacingLeft=6;overflow=hidden;fillStyle=auto;fontColor=#000;" parent="187" vertex="1">
                    <mxGeometry x="50" width="170" height="30" as="geometry">
                        <mxRectangle width="170" height="30" as="alternateBounds"/>
                    </mxGeometry>
                </mxCell>
                <mxCell id="77" value="" style="shape=tableRow;horizontal=0;startSize=0;swimlaneHead=0;swimlaneBody=0;top=0;left=0;bottom=0;right=0;collapsible=0;dropTarget=0;fillColor=#FFFFCC;points=[[0,0.5],[1,0.5]];portConstraint=eastwest;fillStyle=auto;fontColor=#000;" parent="70" vertex="1">
                    <mxGeometry y="150" width="220" height="30" as="geometry"/>
                </mxCell>
                <mxCell id="78" value="FK" style="shape=partialRectangle;html=1;whiteSpace=wrap;connectable=0;fillColor=#FFFFCC;top=0;left=0;bottom=0;right=0;overflow=hidden;fillStyle=auto;fontColor=#000;" parent="77" vertex="1">
                    <mxGeometry width="50" height="30" as="geometry">
                        <mxRectangle width="50" height="30" as="alternateBounds"/>
                    </mxGeometry>
                </mxCell>
                <mxCell id="79" value="user_id nn" style="shape=partialRectangle;html=1;whiteSpace=wrap;connectable=0;fillColor=#FFFFCC;top=0;left=0;bottom=0;right=0;align=left;spacingLeft=6;overflow=hidden;fillStyle=auto;fontColor=#000;" parent="77" vertex="1">
                    <mxGeometry x="50" width="170" height="30" as="geometry">
                        <mxRectangle width="170" height="30" as="alternateBounds"/>
                    </mxGeometry>
                </mxCell>
                <mxCell id="83" value="task" style="shape=table;startSize=30;container=1;collapsible=0;childLayout=tableLayout;fixedRows=1;rowLines=0;fontStyle=1;fillStyle=auto;fontColor=#000;fillColor=#FFFF66;" parent="1" vertex="1">
                    <mxGeometry x="320" y="230" width="281.0000000000002" height="300" as="geometry"/>
                </mxCell>
                <mxCell id="84" value="" style="shape=tableRow;horizontal=0;startSize=0;swimlaneHead=0;swimlaneBody=0;top=0;left=0;bottom=0;right=0;collapsible=0;dropTarget=0;fillColor=#FFFFCC;points=[[0,0.5],[1,0.5]];portConstraint=eastwest;fillStyle=auto;fontColor=#000;" parent="83" vertex="1">
                    <mxGeometry y="30" width="281.0000000000002" height="30" as="geometry"/>
                </mxCell>
                <mxCell id="85" value="PK" style="shape=partialRectangle;html=1;whiteSpace=wrap;connectable=0;fillColor=#FFFFCC;top=0;left=0;bottom=0;right=0;overflow=hidden;fillStyle=auto;fontColor=#000;" parent="84" vertex="1">
                    <mxGeometry width="40" height="30" as="geometry">
                        <mxRectangle width="40" height="30" as="alternateBounds"/>
                    </mxGeometry>
                </mxCell>
                <mxCell id="86" value="task_id&amp;nbsp; VarChar(36) nn" style="shape=partialRectangle;html=1;whiteSpace=wrap;connectable=0;fillColor=#FFFFCC;top=0;left=0;bottom=0;right=0;align=left;spacingLeft=6;overflow=hidden;fillStyle=auto;fontColor=#000;" parent="84" vertex="1">
                    <mxGeometry x="40" width="241" height="30" as="geometry">
                        <mxRectangle width="241" height="30" as="alternateBounds"/>
                    </mxGeometry>
                </mxCell>
                <mxCell id="87" value="" style="shape=tableRow;horizontal=0;startSize=0;swimlaneHead=0;swimlaneBody=0;top=0;left=0;bottom=0;right=0;collapsible=0;dropTarget=0;fillColor=#FFFFCC;points=[[0,0.5],[1,0.5]];portConstraint=eastwest;fillStyle=auto;fontColor=#000;" parent="83" vertex="1">
                    <mxGeometry y="60" width="281.0000000000002" height="30" as="geometry"/>
                </mxCell>
                <mxCell id="88" value="" style="shape=partialRectangle;html=1;whiteSpace=wrap;connectable=0;fillColor=#FFFFCC;top=0;left=0;bottom=0;right=0;overflow=hidden;pointerEvents=1;fillStyle=auto;fontColor=#000;" parent="87" vertex="1">
                    <mxGeometry width="40" height="30" as="geometry">
                        <mxRectangle width="40" height="30" as="alternateBounds"/>
                    </mxGeometry>
                </mxCell>
                <mxCell id="89" value="name VarChar(254) nn" style="shape=partialRectangle;html=1;whiteSpace=wrap;connectable=0;fillColor=#FFFFCC;top=0;left=0;bottom=0;right=0;align=left;spacingLeft=6;overflow=hidden;fillStyle=auto;fontColor=#000;" parent="87" vertex="1">
                    <mxGeometry x="40" width="241" height="30" as="geometry">
                        <mxRectangle width="241" height="30" as="alternateBounds"/>
                    </mxGeometry>
                </mxCell>
                <mxCell id="90" value="" style="shape=tableRow;horizontal=0;startSize=0;swimlaneHead=0;swimlaneBody=0;top=0;left=0;bottom=0;right=0;collapsible=0;dropTarget=0;fillColor=#FFFFCC;points=[[0,0.5],[1,0.5]];portConstraint=eastwest;fillStyle=auto;fontColor=#000;" parent="83" vertex="1">
                    <mxGeometry y="90" width="281.0000000000002" height="30" as="geometry"/>
                </mxCell>
                <mxCell id="91" value="" style="shape=partialRectangle;html=1;whiteSpace=wrap;connectable=0;fillColor=#FFFFCC;top=0;left=0;bottom=0;right=0;overflow=hidden;fillStyle=auto;fontColor=#000;" parent="90" vertex="1">
                    <mxGeometry width="40" height="30" as="geometry">
                        <mxRectangle width="40" height="30" as="alternateBounds"/>
                    </mxGeometry>
                </mxCell>
                <mxCell id="92" value="description TEXT&amp;nbsp;" style="shape=partialRectangle;html=1;whiteSpace=wrap;connectable=0;fillColor=#FFFFCC;top=0;left=0;bottom=0;right=0;align=left;spacingLeft=6;overflow=hidden;fillStyle=auto;fontColor=#000;" parent="90" vertex="1">
                    <mxGeometry x="40" width="241" height="30" as="geometry">
                        <mxRectangle width="241" height="30" as="alternateBounds"/>
                    </mxGeometry>
                </mxCell>
                <mxCell id="93" value="" style="shape=tableRow;horizontal=0;startSize=0;swimlaneHead=0;swimlaneBody=0;top=0;left=0;bottom=0;right=0;collapsible=0;dropTarget=0;fillColor=#FFFFCC;points=[[0,0.5],[1,0.5]];portConstraint=eastwest;fillStyle=auto;fontColor=#000;" parent="83" vertex="1">
                    <mxGeometry y="120" width="281.0000000000002" height="30" as="geometry"/>
                </mxCell>
                <mxCell id="94" value="" style="shape=partialRectangle;html=1;whiteSpace=wrap;connectable=0;fillColor=#FFFFCC;top=0;left=0;bottom=0;right=0;overflow=hidden;fillStyle=auto;fontColor=#000;" parent="93" vertex="1">
                    <mxGeometry width="40" height="30" as="geometry">
                        <mxRectangle width="40" height="30" as="alternateBounds"/>
                    </mxGeometry>
                </mxCell>
                <mxCell id="95" value="expiration_date&amp;nbsp; Date nn" style="shape=partialRectangle;html=1;whiteSpace=wrap;connectable=0;fillColor=#FFFFCC;top=0;left=0;bottom=0;right=0;align=left;spacingLeft=6;overflow=hidden;fillStyle=auto;fontColor=#000;" parent="93" vertex="1">
                    <mxGeometry x="40" width="241" height="30" as="geometry">
                        <mxRectangle width="241" height="30" as="alternateBounds"/>
                    </mxGeometry>
                </mxCell>
                <mxCell id="96" value="" style="shape=tableRow;horizontal=0;startSize=0;swimlaneHead=0;swimlaneBody=0;top=0;left=0;bottom=0;right=0;collapsible=0;dropTarget=0;fillColor=#FFFFCC;points=[[0,0.5],[1,0.5]];portConstraint=eastwest;fillStyle=auto;fontColor=#000;" parent="83" vertex="1">
                    <mxGeometry y="150" width="281.0000000000002" height="30" as="geometry"/>
                </mxCell>
                <mxCell id="97" value="" style="shape=partialRectangle;html=1;whiteSpace=wrap;connectable=0;fillColor=#FFFFCC;top=0;left=0;bottom=0;right=0;overflow=hidden;fillStyle=auto;fontColor=#000;" parent="96" vertex="1">
                    <mxGeometry width="40" height="30" as="geometry">
                        <mxRectangle width="40" height="30" as="alternateBounds"/>
                    </mxGeometry>
                </mxCell>
                <mxCell id="98" value="status boolean nn" style="shape=partialRectangle;html=1;whiteSpace=wrap;connectable=0;fillColor=#FFFFCC;top=0;left=0;bottom=0;right=0;align=left;spacingLeft=6;overflow=hidden;fillStyle=auto;fontColor=#000;" parent="96" vertex="1">
                    <mxGeometry x="40" width="241" height="30" as="geometry">
                        <mxRectangle width="241" height="30" as="alternateBounds"/>
                    </mxGeometry>
                </mxCell>
                <mxCell id="225" value="" style="shape=tableRow;horizontal=0;startSize=0;swimlaneHead=0;swimlaneBody=0;top=0;left=0;bottom=0;right=0;collapsible=0;dropTarget=0;fillColor=#FFFFCC;points=[[0,0.5],[1,0.5]];portConstraint=eastwest;fillStyle=auto;fontColor=#000;" parent="83" vertex="1">
                    <mxGeometry y="180" width="281.0000000000002" height="30" as="geometry"/>
                </mxCell>
                <mxCell id="226" value="" style="shape=partialRectangle;html=1;whiteSpace=wrap;connectable=0;fillColor=#FFFFCC;top=0;left=0;bottom=0;right=0;overflow=hidden;fillStyle=auto;fontColor=#000;" parent="225" vertex="1">
                    <mxGeometry width="40" height="30" as="geometry">
                        <mxRectangle width="40" height="30" as="alternateBounds"/>
                    </mxGeometry>
                </mxCell>
                <mxCell id="227" value="createdAt Date" style="shape=partialRectangle;html=1;whiteSpace=wrap;connectable=0;fillColor=#FFFFCC;top=0;left=0;bottom=0;right=0;align=left;spacingLeft=6;overflow=hidden;fillStyle=auto;fontColor=#000;" parent="225" vertex="1">
                    <mxGeometry x="40" width="241" height="30" as="geometry">
                        <mxRectangle width="241" height="30" as="alternateBounds"/>
                    </mxGeometry>
                </mxCell>
                <mxCell id="254" value="" style="shape=tableRow;horizontal=0;startSize=0;swimlaneHead=0;swimlaneBody=0;top=0;left=0;bottom=0;right=0;collapsible=0;dropTarget=0;fillColor=#FFFFCC;points=[[0,0.5],[1,0.5]];portConstraint=eastwest;fillStyle=auto;fontColor=#000;" parent="83" vertex="1">
                    <mxGeometry y="210" width="281.0000000000002" height="30" as="geometry"/>
                </mxCell>
                <mxCell id="255" value="" style="shape=partialRectangle;html=1;whiteSpace=wrap;connectable=0;fillColor=#FFFFCC;top=0;left=0;bottom=0;right=0;overflow=hidden;fillStyle=auto;fontColor=#000;" parent="254" vertex="1">
                    <mxGeometry width="40" height="30" as="geometry">
                        <mxRectangle width="40" height="30" as="alternateBounds"/>
                    </mxGeometry>
                </mxCell>
                <mxCell id="256" value="updatedAt Date" style="shape=partialRectangle;html=1;whiteSpace=wrap;connectable=0;fillColor=#FFFFCC;top=0;left=0;bottom=0;right=0;align=left;spacingLeft=6;overflow=hidden;fillStyle=auto;fontColor=#000;" parent="254" vertex="1">
                    <mxGeometry x="40" width="241" height="30" as="geometry">
                        <mxRectangle width="241" height="30" as="alternateBounds"/>
                    </mxGeometry>
                </mxCell>
                <mxCell id="115" value="" style="shape=tableRow;horizontal=0;startSize=0;swimlaneHead=0;swimlaneBody=0;top=0;left=0;bottom=0;right=0;collapsible=0;dropTarget=0;fillColor=#FFFFCC;points=[[0,0.5],[1,0.5]];portConstraint=eastwest;fillStyle=auto;fontColor=#000;" parent="83" vertex="1">
                    <mxGeometry y="240" width="281.0000000000002" height="30" as="geometry"/>
                </mxCell>
                <mxCell id="116" value="FK" style="shape=partialRectangle;html=1;whiteSpace=wrap;connectable=0;fillColor=#FFFFCC;top=0;left=0;bottom=0;right=0;overflow=hidden;fillStyle=auto;fontColor=#000;" parent="115" vertex="1">
                    <mxGeometry width="40" height="30" as="geometry">
                        <mxRectangle width="40" height="30" as="alternateBounds"/>
                    </mxGeometry>
                </mxCell>
                <mxCell id="117" value="project_id" style="shape=partialRectangle;html=1;whiteSpace=wrap;connectable=0;fillColor=#FFFFCC;top=0;left=0;bottom=0;right=0;align=left;spacingLeft=6;overflow=hidden;fillStyle=auto;fontColor=#000;" parent="115" vertex="1">
                    <mxGeometry x="40" width="241" height="30" as="geometry">
                        <mxRectangle width="241" height="30" as="alternateBounds"/>
                    </mxGeometry>
                </mxCell>
                <mxCell id="180" value="" style="whiteSpace=wrap;html=1;fillColor=#FFFF66;fontColor=#000;startSize=30;fontStyle=1;fillStyle=auto;" parent="115" vertex="1">
                    <mxGeometry x="281" height="30" as="geometry">
                        <mxRectangle width="NaN" height="30" as="alternateBounds"/>
                    </mxGeometry>
                </mxCell>
                <mxCell id="159" value="" style="shape=tableRow;horizontal=0;startSize=0;swimlaneHead=0;swimlaneBody=0;top=0;left=0;bottom=0;right=0;collapsible=0;dropTarget=0;fillColor=#FFFFCC;points=[[0,0.5],[1,0.5]];portConstraint=eastwest;fillStyle=auto;fontColor=#000;" parent="83" vertex="1">
                    <mxGeometry y="270" width="281.0000000000002" height="30" as="geometry"/>
                </mxCell>
                <mxCell id="160" value="FK" style="shape=partialRectangle;html=1;whiteSpace=wrap;connectable=0;fillColor=#FFFFCC;top=0;left=0;bottom=0;right=0;overflow=hidden;fillStyle=auto;fontColor=#000;" parent="159" vertex="1">
                    <mxGeometry width="40" height="30" as="geometry">
                        <mxRectangle width="40" height="30" as="alternateBounds"/>
                    </mxGeometry>
                </mxCell>
                <mxCell id="161" value="user_id" style="shape=partialRectangle;html=1;whiteSpace=wrap;connectable=0;fillColor=#FFFFCC;top=0;left=0;bottom=0;right=0;align=left;spacingLeft=6;overflow=hidden;fillStyle=auto;fontColor=#000;" parent="159" vertex="1">
                    <mxGeometry x="40" width="241" height="30" as="geometry">
                        <mxRectangle width="241" height="30" as="alternateBounds"/>
                    </mxGeometry>
                </mxCell>
                <mxCell id="118" value="sub_task" style="shape=table;startSize=30;container=1;collapsible=0;childLayout=tableLayout;fixedRows=1;rowLines=0;fontStyle=1;fillStyle=auto;fontColor=#000;fillColor=#FFFF66;" parent="1" vertex="1">
                    <mxGeometry x="780" y="280" width="280.0000000000002" height="270" as="geometry"/>
                </mxCell>
                <mxCell id="119" value="" style="shape=tableRow;horizontal=0;startSize=0;swimlaneHead=0;swimlaneBody=0;top=0;left=0;bottom=0;right=0;collapsible=0;dropTarget=0;fillColor=#FFFFCC;points=[[0,0.5],[1,0.5]];portConstraint=eastwest;fillStyle=auto;fontColor=#000;" parent="118" vertex="1">
                    <mxGeometry y="30" width="280.0000000000002" height="30" as="geometry"/>
                </mxCell>
                <mxCell id="120" value="PK" style="shape=partialRectangle;html=1;whiteSpace=wrap;connectable=0;fillColor=#FFFFCC;top=0;left=0;bottom=0;right=0;overflow=hidden;fillStyle=auto;fontColor=#000;" parent="119" vertex="1">
                    <mxGeometry width="40" height="30" as="geometry">
                        <mxRectangle width="40" height="30" as="alternateBounds"/>
                    </mxGeometry>
                </mxCell>
                <mxCell id="121" value="sub_task_id&amp;nbsp; VarChar(36) nn" style="shape=partialRectangle;html=1;whiteSpace=wrap;connectable=0;fillColor=#FFFFCC;top=0;left=0;bottom=0;right=0;align=left;spacingLeft=6;overflow=hidden;fillStyle=auto;fontColor=#000;" parent="119" vertex="1">
                    <mxGeometry x="40" width="240" height="30" as="geometry">
                        <mxRectangle width="240" height="30" as="alternateBounds"/>
                    </mxGeometry>
                </mxCell>
                <mxCell id="122" value="" style="shape=tableRow;horizontal=0;startSize=0;swimlaneHead=0;swimlaneBody=0;top=0;left=0;bottom=0;right=0;collapsible=0;dropTarget=0;fillColor=#FFFFCC;points=[[0,0.5],[1,0.5]];portConstraint=eastwest;fillStyle=auto;fontColor=#000;" parent="118" vertex="1">
                    <mxGeometry y="60" width="280.0000000000002" height="30" as="geometry"/>
                </mxCell>
                <mxCell id="123" value="" style="shape=partialRectangle;html=1;whiteSpace=wrap;connectable=0;fillColor=#FFFFCC;top=0;left=0;bottom=0;right=0;overflow=hidden;pointerEvents=1;fillStyle=auto;fontColor=#000;" parent="122" vertex="1">
                    <mxGeometry width="40" height="30" as="geometry">
                        <mxRectangle width="40" height="30" as="alternateBounds"/>
                    </mxGeometry>
                </mxCell>
                <mxCell id="124" value="name VarChar(254) nn" style="shape=partialRectangle;html=1;whiteSpace=wrap;connectable=0;fillColor=#FFFFCC;top=0;left=0;bottom=0;right=0;align=left;spacingLeft=6;overflow=hidden;fillStyle=auto;fontColor=#000;" parent="122" vertex="1">
                    <mxGeometry x="40" width="240" height="30" as="geometry">
                        <mxRectangle width="240" height="30" as="alternateBounds"/>
                    </mxGeometry>
                </mxCell>
                <mxCell id="125" value="" style="shape=tableRow;horizontal=0;startSize=0;swimlaneHead=0;swimlaneBody=0;top=0;left=0;bottom=0;right=0;collapsible=0;dropTarget=0;fillColor=#FFFFCC;points=[[0,0.5],[1,0.5]];portConstraint=eastwest;fillStyle=auto;fontColor=#000;" parent="118" vertex="1">
                    <mxGeometry y="90" width="280.0000000000002" height="30" as="geometry"/>
                </mxCell>
                <mxCell id="126" value="" style="shape=partialRectangle;html=1;whiteSpace=wrap;connectable=0;fillColor=#FFFFCC;top=0;left=0;bottom=0;right=0;overflow=hidden;fillStyle=auto;fontColor=#000;" parent="125" vertex="1">
                    <mxGeometry width="40" height="30" as="geometry">
                        <mxRectangle width="40" height="30" as="alternateBounds"/>
                    </mxGeometry>
                </mxCell>
                <mxCell id="127" value="description TEXT&amp;nbsp;" style="shape=partialRectangle;html=1;whiteSpace=wrap;connectable=0;fillColor=#FFFFCC;top=0;left=0;bottom=0;right=0;align=left;spacingLeft=6;overflow=hidden;fillStyle=auto;fontColor=#000;" parent="125" vertex="1">
                    <mxGeometry x="40" width="240" height="30" as="geometry">
                        <mxRectangle width="240" height="30" as="alternateBounds"/>
                    </mxGeometry>
                </mxCell>
                <mxCell id="128" value="" style="shape=tableRow;horizontal=0;startSize=0;swimlaneHead=0;swimlaneBody=0;top=0;left=0;bottom=0;right=0;collapsible=0;dropTarget=0;fillColor=#FFFFCC;points=[[0,0.5],[1,0.5]];portConstraint=eastwest;fillStyle=auto;fontColor=#000;" parent="118" vertex="1">
                    <mxGeometry y="120" width="280.0000000000002" height="30" as="geometry"/>
                </mxCell>
                <mxCell id="129" value="" style="shape=partialRectangle;html=1;whiteSpace=wrap;connectable=0;fillColor=#FFFFCC;top=0;left=0;bottom=0;right=0;overflow=hidden;fillStyle=auto;fontColor=#000;" parent="128" vertex="1">
                    <mxGeometry width="40" height="30" as="geometry">
                        <mxRectangle width="40" height="30" as="alternateBounds"/>
                    </mxGeometry>
                </mxCell>
                <mxCell id="130" value="expiration_date&amp;nbsp; Date nn" style="shape=partialRectangle;html=1;whiteSpace=wrap;connectable=0;fillColor=#FFFFCC;top=0;left=0;bottom=0;right=0;align=left;spacingLeft=6;overflow=hidden;fillStyle=auto;fontColor=#000;" parent="128" vertex="1">
                    <mxGeometry x="40" width="240" height="30" as="geometry">
                        <mxRectangle width="240" height="30" as="alternateBounds"/>
                    </mxGeometry>
                </mxCell>
                <mxCell id="131" value="" style="shape=tableRow;horizontal=0;startSize=0;swimlaneHead=0;swimlaneBody=0;top=0;left=0;bottom=0;right=0;collapsible=0;dropTarget=0;fillColor=#FFFFCC;points=[[0,0.5],[1,0.5]];portConstraint=eastwest;fillStyle=auto;fontColor=#000;" parent="118" vertex="1">
                    <mxGeometry y="150" width="280.0000000000002" height="30" as="geometry"/>
                </mxCell>
                <mxCell id="132" value="" style="shape=partialRectangle;html=1;whiteSpace=wrap;connectable=0;fillColor=#FFFFCC;top=0;left=0;bottom=0;right=0;overflow=hidden;fillStyle=auto;fontColor=#000;" parent="131" vertex="1">
                    <mxGeometry width="40" height="30" as="geometry">
                        <mxRectangle width="40" height="30" as="alternateBounds"/>
                    </mxGeometry>
                </mxCell>
                <mxCell id="133" value="status boolean nn" style="shape=partialRectangle;html=1;whiteSpace=wrap;connectable=0;fillColor=#FFFFCC;top=0;left=0;bottom=0;right=0;align=left;spacingLeft=6;overflow=hidden;fillStyle=auto;fontColor=#000;" parent="131" vertex="1">
                    <mxGeometry x="40" width="240" height="30" as="geometry">
                        <mxRectangle width="240" height="30" as="alternateBounds"/>
                    </mxGeometry>
                </mxCell>
                <mxCell id="263" value="" style="shape=tableRow;horizontal=0;startSize=0;swimlaneHead=0;swimlaneBody=0;top=0;left=0;bottom=0;right=0;collapsible=0;dropTarget=0;fillColor=#FFFFCC;points=[[0,0.5],[1,0.5]];portConstraint=eastwest;fillStyle=auto;fontColor=#000;" parent="118" vertex="1">
                    <mxGeometry y="180" width="280.0000000000002" height="30" as="geometry"/>
                </mxCell>
                <mxCell id="264" value="" style="shape=partialRectangle;html=1;whiteSpace=wrap;connectable=0;fillColor=#FFFFCC;top=0;left=0;bottom=0;right=0;overflow=hidden;pointerEvents=1;fillStyle=auto;fontColor=#000;" parent="263" vertex="1">
                    <mxGeometry width="40" height="30" as="geometry">
                        <mxRectangle width="40" height="30" as="alternateBounds"/>
                    </mxGeometry>
                </mxCell>
                <mxCell id="265" value="createdAt Date" style="shape=partialRectangle;html=1;whiteSpace=wrap;connectable=0;fillColor=#FFFFCC;top=0;left=0;bottom=0;right=0;align=left;spacingLeft=6;overflow=hidden;fillStyle=auto;fontColor=#000;" parent="263" vertex="1">
                    <mxGeometry x="40" width="240" height="30" as="geometry">
                        <mxRectangle width="240" height="30" as="alternateBounds"/>
                    </mxGeometry>
                </mxCell>
                <mxCell id="266" value="" style="shape=tableRow;horizontal=0;startSize=0;swimlaneHead=0;swimlaneBody=0;top=0;left=0;bottom=0;right=0;collapsible=0;dropTarget=0;fillColor=#FFFFCC;points=[[0,0.5],[1,0.5]];portConstraint=eastwest;fillStyle=auto;fontColor=#000;" parent="118" vertex="1">
                    <mxGeometry y="210" width="280.0000000000002" height="30" as="geometry"/>
                </mxCell>
                <mxCell id="267" value="" style="shape=partialRectangle;html=1;whiteSpace=wrap;connectable=0;fillColor=#FFFFCC;top=0;left=0;bottom=0;right=0;overflow=hidden;pointerEvents=1;fillStyle=auto;fontColor=#000;" parent="266" vertex="1">
                    <mxGeometry width="40" height="30" as="geometry">
                        <mxRectangle width="40" height="30" as="alternateBounds"/>
                    </mxGeometry>
                </mxCell>
                <mxCell id="268" value="updatedAt Date" style="shape=partialRectangle;html=1;whiteSpace=wrap;connectable=0;fillColor=#FFFFCC;top=0;left=0;bottom=0;right=0;align=left;spacingLeft=6;overflow=hidden;fillStyle=auto;fontColor=#000;" parent="266" vertex="1">
                    <mxGeometry x="40" width="240" height="30" as="geometry">
                        <mxRectangle width="240" height="30" as="alternateBounds"/>
                    </mxGeometry>
                </mxCell>
                <mxCell id="134" value="" style="shape=tableRow;horizontal=0;startSize=0;swimlaneHead=0;swimlaneBody=0;top=0;left=0;bottom=0;right=0;collapsible=0;dropTarget=0;fillColor=#FFFFCC;points=[[0,0.5],[1,0.5]];portConstraint=eastwest;fillStyle=auto;fontColor=#000;" parent="118" vertex="1">
                    <mxGeometry y="240" width="280.0000000000002" height="30" as="geometry"/>
                </mxCell>
                <mxCell id="135" value="FK" style="shape=partialRectangle;html=1;whiteSpace=wrap;connectable=0;fillColor=#FFFFCC;top=0;left=0;bottom=0;right=0;overflow=hidden;fillStyle=auto;fontColor=#000;" parent="134" vertex="1">
                    <mxGeometry width="40" height="30" as="geometry">
                        <mxRectangle width="40" height="30" as="alternateBounds"/>
                    </mxGeometry>
                </mxCell>
                <mxCell id="136" value="task_id" style="shape=partialRectangle;html=1;whiteSpace=wrap;connectable=0;fillColor=#FFFFCC;top=0;left=0;bottom=0;right=0;align=left;spacingLeft=6;overflow=hidden;fillStyle=auto;fontColor=#000;" parent="134" vertex="1">
                    <mxGeometry x="40" width="240" height="30" as="geometry">
                        <mxRectangle width="240" height="30" as="alternateBounds"/>
                    </mxGeometry>
                </mxCell>
                <mxCell id="137" value="" style="endArrow=classic;html=1;fontColor=#FFFFFF;exitX=1;exitY=0.5;exitDx=0;exitDy=0;edgeStyle=orthogonalEdgeStyle;" parent="1" source="57" target="90" edge="1">
                    <mxGeometry relative="1" as="geometry">
                        <mxPoint x="140" y="350" as="sourcePoint"/>
                        <mxPoint x="280.0000000000002" y="360" as="targetPoint"/>
                    </mxGeometry>
                </mxCell>
                <mxCell id="138" value="(1:M)" style="edgeLabel;resizable=0;html=1;align=center;verticalAlign=middle;fillStyle=auto;fontColor=#FFFFFF;fillColor=#FFFFCC;fontSize=14;" parent="137" connectable="0" vertex="1">
                    <mxGeometry relative="1" as="geometry"/>
                </mxCell>
                <mxCell id="171" value="" style="endArrow=classic;html=1;fontColor=#FFFFFF;exitX=0.581;exitY=-0.005;exitDx=0;exitDy=0;edgeStyle=orthogonalEdgeStyle;exitPerimeter=0;entryX=0;entryY=0.333;entryDx=0;entryDy=0;entryPerimeter=0;" parent="1" source="56" target="74" edge="1">
                    <mxGeometry relative="1" as="geometry">
                        <mxPoint x="110" y="169.39" as="sourcePoint"/>
                        <mxPoint x="290" y="169.39" as="targetPoint"/>
                    </mxGeometry>
                </mxCell>
                <mxCell id="172" value="(1:M)" style="edgeLabel;resizable=0;html=1;align=center;verticalAlign=middle;fillStyle=auto;fontColor=#FFFFFF;fillColor=#FFFFCC;fontSize=14;" parent="171" connectable="0" vertex="1">
                    <mxGeometry relative="1" as="geometry"/>
                </mxCell>
                <mxCell id="173" value="" style="endArrow=classic;html=1;fontColor=#FFFFFF;exitX=0.497;exitY=0.974;exitDx=0;exitDy=0;edgeStyle=orthogonalEdgeStyle;exitPerimeter=0;entryX=0.5;entryY=0;entryDx=0;entryDy=0;" parent="1" source="77" target="83" edge="1">
                    <mxGeometry relative="1" as="geometry">
                        <mxPoint x="170" y="230" as="sourcePoint"/>
                        <mxPoint x="350" y="230" as="targetPoint"/>
                    </mxGeometry>
                </mxCell>
                <mxCell id="174" value="(1:M)" style="edgeLabel;resizable=0;html=1;align=center;verticalAlign=middle;fillStyle=auto;fontColor=#FFFFFF;fillColor=#FFFFCC;fontSize=14;" parent="173" connectable="0" vertex="1">
                    <mxGeometry relative="1" as="geometry"/>
                </mxCell>
                <mxCell id="178" value="" style="endArrow=classic;html=1;fontColor=#FFFFFF;exitX=1.001;exitY=0.771;exitDx=0;exitDy=0;edgeStyle=orthogonalEdgeStyle;exitPerimeter=0;entryX=-0.015;entryY=0.757;entryDx=0;entryDy=0;entryPerimeter=0;" parent="1" source="90" target="119" edge="1">
                    <mxGeometry relative="1" as="geometry">
                        <mxPoint x="660.0000000000001" y="99.22000000000003" as="sourcePoint"/>
                        <mxPoint x="660.6" y="220" as="targetPoint"/>
                    </mxGeometry>
                </mxCell>
                <mxCell id="179" value="(1:M)" style="edgeLabel;resizable=0;html=1;align=center;verticalAlign=middle;fillStyle=auto;fontColor=#FFFFFF;fillColor=#FFFFCC;fontSize=14;" parent="178" connectable="0" vertex="1">
                    <mxGeometry relative="1" as="geometry"/>
                </mxCell>
            </root>
        </mxGraphModel>
    </diagram>
</mxfile>